<?xml version="1.0" encoding="UTF-8" standalone="no"?>
<!-- Created with Inkscape (http://www.inkscape.org/) -->

<svg
   xmlns:dc="http://purl.org/dc/elements/1.1/"
   xmlns:cc="http://creativecommons.org/ns#"
   xmlns:rdf="http://www.w3.org/1999/02/22-rdf-syntax-ns#"
   xmlns:svg="http://www.w3.org/2000/svg"
   xmlns="http://www.w3.org/2000/svg"
   xmlns:sodipodi="http://sodipodi.sourceforge.net/DTD/sodipodi-0.dtd"
   xmlns:inkscape="http://www.inkscape.org/namespaces/inkscape"
   id="svg3347"
   version="1.1"
   inkscape:version="0.91 r13725"
   width="32"
   height="32"
   viewBox="0 0 32 32"
   sodipodi:docname="icon_audio_prev.svg">
  <metadata
     id="metadata3353">
    <rdf:RDF>
      <cc:Work
         rdf:about="">
        <dc:format>image/svg+xml</dc:format>
        <dc:type
           rdf:resource="http://purl.org/dc/dcmitype/StillImage" />
        <dc:title />
      </cc:Work>
    </rdf:RDF>
  </metadata>
  <defs
     id="defs3351" />
  <sodipodi:namedview
     pagecolor="#ffffff"
     bordercolor="#666666"
     borderopacity="1"
     objecttolerance="10"
     gridtolerance="10"
     guidetolerance="10"
     inkscape:pageopacity="0"
     inkscape:pageshadow="2"
     inkscape:window-width="1920"
     inkscape:window-height="1058"
     id="namedview3349"
     showgrid="false"
     inkscape:zoom="11.313708"
     inkscape:cx="30.368457"
     inkscape:cy="15.916913"
     inkscape:window-x="1912"
     inkscape:window-y="-8"
     inkscape:window-maximized="1"
     inkscape:current-layer="svg3347"
     inkscape:snap-page="true"
     inkscape:snap-center="true"
     inkscape:snap-midpoints="true"
     inkscape:snap-bbox="true"
     inkscape:bbox-paths="true"
     inkscape:bbox-nodes="true"
     inkscape:snap-bbox-edge-midpoints="true"
     inkscape:snap-bbox-midpoints="true"
     inkscape:object-paths="true"
     inkscape:snap-smooth-nodes="true"
     inkscape:object-nodes="true"
     inkscape:snap-intersection-paths="true"
     inkscape:snap-global="false"
     showguides="false" />
  <circle
     style="color:#000000;clip-rule:nonzero;display:inline;overflow:visible;visibility:visible;opacity:1;isolation:auto;mix-blend-mode:normal;color-interpolation:sRGB;color-interpolation-filters:linearRGB;solid-color:#000000;solid-opacity:1;fill:#e7e7e7;fill-opacity:1;fill-rule:evenodd;stroke:#484848;stroke-width:1;stroke-linecap:round;stroke-linejoin:miter;stroke-miterlimit:4;stroke-dasharray:none;stroke-dashoffset:0;stroke-opacity:1;color-rendering:auto;image-rendering:auto;shape-rendering:auto;text-rendering:auto;enable-background:accumulate"
     id="path4367-3"
     cx="62.667339"
     cy="15.648156"
     r="16" />
  <path
     id="path4363-9"
     style="color:#000000;clip-rule:nonzero;display:inline;overflow:visible;visibility:visible;opacity:1;isolation:auto;mix-blend-mode:normal;color-interpolation:sRGB;color-interpolation-filters:linearRGB;solid-color:#000000;solid-opacity:1;fill:#303030;fill-opacity:1;fill-rule:evenodd;stroke:none;stroke-width:1;stroke-linecap:round;stroke-linejoin:miter;stroke-miterlimit:4;stroke-dasharray:none;stroke-dashoffset:0;stroke-opacity:1;color-rendering:auto;image-rendering:auto;shape-rendering:auto;text-rendering:auto;enable-background:accumulate"
     d="m 66.303216,20.605411 c -0.225509,-0.102094 -0.495003,-0.362337 -0.588623,-0.568416 -0.11076,-0.243808 -0.11375,-0.680744 -0.0063,-0.90738 0.04467,-0.09413 0.292516,-0.382316 0.550781,-0.640411 0.51028,-0.509948 0.737221,-0.819847 0.985761,-1.346109 0.259965,-0.550451 0.327078,-0.870101 0.322535,-1.53619 -0.0034,-0.506294 -0.02163,-0.640094 -0.133799,-0.984374 -0.237499,-0.729013 -0.494106,-1.127977 -1.175815,-1.828126 -0.263574,-0.270702 -0.513301,-0.559694 -0.55495,-0.642203 -0.044,-0.08718 -0.07572,-0.264947 -0.07572,-0.424391 0,-0.681928 0.572223,-1.199134 1.229117,-1.110941 0.277004,0.03719 0.765098,0.369614 1.232371,0.83933 0.778247,0.782315 1.268599,1.656516 1.552552,2.767894 0.160972,0.630041 0.204648,1.758965 0.09289,2.401104 -0.157395,0.904373 -0.522568,1.779381 -1.045997,2.50636 -0.311231,0.432261 -0.963328,1.076335 -1.349017,1.332418 -0.235034,0.156054 -0.311177,0.181368 -0.581042,0.193169 -0.193063,0.0085 -0.365145,-0.01113 -0.45483,-0.05174 z m 2.605205,4.114373 c -0.718996,-0.310949 -0.905938,-1.291431 -0.344136,-1.80494 0.07326,-0.06696 0.312497,-0.256091 0.531636,-0.420287 1.390626,-1.041951 2.497218,-2.643242 3.018195,-4.367466 0.278134,-0.920516 0.332662,-1.335382 0.331239,-2.520186 -0.0011,-0.962797 -0.01219,-1.105824 -0.126576,-1.641626 -0.464149,-2.174031 -1.622081,-3.9891005 -3.373891,-5.2886095 -0.487395,-0.361554 -0.614982,-0.522675 -0.697715,-0.881088 -0.147449,-0.638785 0.387329,-1.295818 1.054702,-1.295818 0.310709,0 0.564314,0.11453 1.036234,0.467972 2.00977,1.505203 3.448923,3.6933425 4.054802,6.1650645 0.226209,0.922836 0.295459,1.642879 0.269143,2.798493 -0.01886,0.828481 -0.0452,1.127341 -0.145537,1.651351 -0.437652,2.285744 -1.503415,4.265256 -3.151939,5.854304 -0.560462,0.540242 -1.269621,1.096555 -1.588969,1.246496 -0.273428,0.128383 -0.620709,0.142935 -0.867188,0.03633 z M 61.489605,3.6490955 c -0.625024,0.01859 -1.306528,0.313412 -1.885254,1.001975 l -5.025879,4.99669 -2.411133,0 c -0.831,0 -1.5,0.6690135 -1.5,1.5000315 l 0,9.000195 c 0,0.831018 0.669,1.500032 1.5,1.500032 l 2.411133,0 5.025879,4.99669 c 1.543268,1.836168 3.812988,0.877531 3.812988,-0.678238 l 0,-20.6371635 c 0,-0.972354 -0.88603,-1.711194 -1.927734,-1.680212 z"
     inkscape:connector-curvature="0" />
  <path
     style="color:#000000;clip-rule:nonzero;display:inline;overflow:visible;visibility:visible;opacity:1;isolation:auto;mix-blend-mode:normal;color-interpolation:sRGB;color-interpolation-filters:linearRGB;solid-color:#000000;solid-opacity:1;fill:#000000;fill-opacity:1;fill-rule:evenodd;stroke:none;stroke-width:1;stroke-linecap:round;stroke-linejoin:miter;stroke-miterlimit:4;stroke-dasharray:none;stroke-dashoffset:0;stroke-opacity:0.43689348;color-rendering:auto;image-rendering:auto;shape-rendering:auto;text-rendering:auto;enable-background:accumulate"
     d="m 110.71219,48.520527 c 0,3.40533 -2.16344,6.165894 -4.83217,6.165894 -1.39044,0 -2.64371,-0.749358 -3.52531,-1.948843 -0.83169,-3.90027 -0.46907,-6.109475 -0.025,-8.399899 0.88282,-1.219424 2.14665,-1.983045 3.55026,-1.983045 2.66873,-10e-7 4.83217,2.760564 4.83217,6.165892 z"
     id="path4168"
     inkscape:connector-curvature="0"
     sodipodi:nodetypes="ssccss" />
  <ellipse
     style="color:#000000;clip-rule:nonzero;display:inline;overflow:visible;visibility:visible;opacity:1;isolation:auto;mix-blend-mode:normal;color-interpolation:sRGB;color-interpolation-filters:linearRGB;solid-color:#000000;solid-opacity:1;fill:#4f4f4f;fill-opacity:1;fill-rule:evenodd;stroke:none;stroke-width:1;stroke-linecap:round;stroke-linejoin:miter;stroke-miterlimit:4;stroke-dasharray:none;stroke-dashoffset:0;stroke-opacity:1;color-rendering:auto;image-rendering:auto;shape-rendering:auto;text-rendering:auto;enable-background:accumulate"
     id="path4136"
     cx="88.538574"
     cy="51.091621"
     rx="7.2154284"
     ry="10.220811" />
  <g
     id="g4272"
     transform="matrix(0.76013176,-0.43886228,0.5,0.8660254,46.675534,44.473101)">
    <path
       sodipodi:nodetypes="cccccc"
       inkscape:connector-curvature="0"
       id="path4168-2"
       d="M 5.184762,9.6912006 C 2.460064,9.6889006 0.250238,12.588346 0.25,16.166081 c 2.38e-4,3.577735 2.210064,6.477234 4.934762,6.474879 l 3.543557,0 0,-12.9497594 z"
       style="color:#000000;clip-rule:nonzero;display:inline;overflow:visible;visibility:visible;opacity:1;isolation:auto;mix-blend-mode:normal;color-interpolation:sRGB;color-interpolation-filters:linearRGB;solid-color:#000000;solid-opacity:1;fill:#383838;fill-opacity:1;fill-rule:evenodd;stroke:none;stroke-width:0.2;stroke-linecap:round;stroke-linejoin:miter;stroke-miterlimit:4;stroke-dasharray:none;stroke-dashoffset:0;stroke-opacity:1;color-rendering:auto;image-rendering:auto;shape-rendering:auto;text-rendering:auto;enable-background:accumulate" />
    <ellipse
       ry="16.032595"
       rx="12.192926"
       cy="16.00983"
       cx="16.680971"
       id="path4136-9-6"
       style="color:#000000;clip-rule:nonzero;display:inline;overflow:visible;visibility:visible;opacity:1;isolation:auto;mix-blend-mode:normal;color-interpolation:sRGB;color-interpolation-filters:linearRGB;solid-color:#000000;solid-opacity:1;fill:#494949;fill-opacity:1;fill-rule:evenodd;stroke:none;stroke-width:3;stroke-linecap:round;stroke-linejoin:miter;stroke-miterlimit:4;stroke-dasharray:none;stroke-dashoffset:0;stroke-opacity:1;color-rendering:auto;image-rendering:auto;shape-rendering:auto;text-rendering:auto;enable-background:accumulate" />
    <path
       sodipodi:nodetypes="ccccc"
       inkscape:connector-curvature="0"
       id="rect4156"
       d="m 15.813341,17.634107 8.747858,6.678301 -2.813723,3.445319 -6.527806,-8.653254 z"
       style="color:#000000;clip-rule:nonzero;display:inline;overflow:visible;visibility:visible;opacity:1;isolation:auto;mix-blend-mode:normal;color-interpolation:sRGB;color-interpolation-filters:linearRGB;solid-color:#000000;solid-opacity:1;fill:#5c5c5c;fill-opacity:1;fill-rule:evenodd;stroke:none;stroke-width:1;stroke-linecap:round;stroke-linejoin:miter;stroke-miterlimit:4;stroke-dasharray:none;stroke-dashoffset:0;stroke-opacity:1;color-rendering:auto;image-rendering:auto;shape-rendering:auto;text-rendering:auto;enable-background:accumulate" />
    <path
       sodipodi:nodetypes="ccccc"
       inkscape:connector-curvature="0"
       id="rect4156-9"
       d="m 15.901729,16.560502 10.265625,3.315483 -1.944544,4.795272 -8.487594,-6.967594 z"
       style="color:#000000;clip-rule:nonzero;display:inline;overflow:visible;visibility:visible;opacity:1;isolation:auto;mix-blend-mode:normal;color-interpolation:sRGB;color-interpolation-filters:linearRGB;solid-color:#000000;solid-opacity:1;fill:#686868;fill-opacity:1;fill-rule:evenodd;stroke:none;stroke-width:1;stroke-linecap:round;stroke-linejoin:miter;stroke-miterlimit:4;stroke-dasharray:none;stroke-dashoffset:0;stroke-opacity:1;color-rendering:auto;image-rendering:auto;shape-rendering:auto;text-rendering:auto;enable-background:accumulate" />
    <path
       sodipodi:nodetypes="ccccc"
       inkscape:connector-curvature="0"
       id="rect4156-9-3"
       d="m 15.985021,15.801433 10.204885,0.234245 -0.773073,4.070509 -9.456589,-3.394718 z"
       style="color:#000000;clip-rule:nonzero;display:inline;overflow:visible;visibility:visible;opacity:1;isolation:auto;mix-blend-mode:normal;color-interpolation:sRGB;color-interpolation-filters:linearRGB;solid-color:#000000;solid-opacity:1;fill:#7d7d7d;fill-opacity:1;fill-rule:evenodd;stroke:none;stroke-width:1;stroke-linecap:round;stroke-linejoin:miter;stroke-miterlimit:4;stroke-dasharray:none;stroke-dashoffset:0;stroke-opacity:1;color-rendering:auto;image-rendering:auto;shape-rendering:auto;text-rendering:auto;enable-background:accumulate" />
    <path
       sodipodi:nodetypes="ccccc"
       inkscape:connector-curvature="0"
       id="rect4156-9-3-2"
       d="m 15.948084,14.759404 10.481425,-3.252983 0.342177,5.567099 -10.7562,-1.20253 z"
       style="color:#000000;clip-rule:nonzero;display:inline;overflow:visible;visibility:visible;opacity:1;isolation:auto;mix-blend-mode:normal;color-interpolation:sRGB;color-interpolation-filters:linearRGB;solid-color:#000000;solid-opacity:1;fill:#969696;fill-opacity:1;fill-rule:evenodd;stroke:none;stroke-width:1;stroke-linecap:round;stroke-linejoin:miter;stroke-miterlimit:4;stroke-dasharray:none;stroke-dashoffset:0;stroke-opacity:1;color-rendering:auto;image-rendering:auto;shape-rendering:auto;text-rendering:auto;enable-background:accumulate" />
    <path
       sodipodi:nodetypes="ccccc"
       inkscape:connector-curvature="0"
       id="rect4156-9-3-8"
       d="m 15.781115,13.987627 8.704561,-5.7894826 1.391735,3.6314386 -9.746858,3.029893 z"
       style="color:#000000;clip-rule:nonzero;display:inline;overflow:visible;visibility:visible;opacity:1;isolation:auto;mix-blend-mode:normal;color-interpolation:sRGB;color-interpolation-filters:linearRGB;solid-color:#000000;solid-opacity:1;fill:#7d7d7d;fill-opacity:1;fill-rule:evenodd;stroke:none;stroke-width:1;stroke-linecap:round;stroke-linejoin:miter;stroke-miterlimit:4;stroke-dasharray:none;stroke-dashoffset:0;stroke-opacity:1;color-rendering:auto;image-rendering:auto;shape-rendering:auto;text-rendering:auto;enable-background:accumulate" />
    <path
       sodipodi:nodetypes="ccccc"
       inkscape:connector-curvature="0"
       id="rect4156-9-2"
       d="m 15.253197,13.200174 6.850356,-8.1246186 2.530869,3.3154731 -8.804211,5.6737375 z"
       style="color:#000000;clip-rule:nonzero;display:inline;overflow:visible;visibility:visible;opacity:1;isolation:auto;mix-blend-mode:normal;color-interpolation:sRGB;color-interpolation-filters:linearRGB;solid-color:#000000;solid-opacity:1;fill:#686868;fill-opacity:1;fill-rule:evenodd;stroke:none;stroke-width:1;stroke-linecap:round;stroke-linejoin:miter;stroke-miterlimit:4;stroke-dasharray:none;stroke-dashoffset:0;stroke-opacity:1;color-rendering:auto;image-rendering:auto;shape-rendering:auto;text-rendering:auto;enable-background:accumulate" />
    <path
       sodipodi:nodetypes="ccccc"
       inkscape:connector-curvature="0"
       id="rect4156-5"
       d="m 14.487168,12.709922 4.995637,-9.6976349 2.793296,2.4425429 -6.97871,7.775014 z"
       style="color:#000000;clip-rule:nonzero;display:inline;overflow:visible;visibility:visible;opacity:1;isolation:auto;mix-blend-mode:normal;color-interpolation:sRGB;color-interpolation-filters:linearRGB;solid-color:#000000;solid-opacity:1;fill:#5c5c5c;fill-opacity:1;fill-rule:evenodd;stroke:none;stroke-width:1;stroke-linecap:round;stroke-linejoin:miter;stroke-miterlimit:4;stroke-dasharray:none;stroke-dashoffset:0;stroke-opacity:1;color-rendering:auto;image-rendering:auto;shape-rendering:auto;text-rendering:auto;enable-background:accumulate" />
    <path
       inkscape:connector-curvature="0"
       d="M 25.714234,16.00983 A 9.4735865,13.258021 0 0 1 16.240647,29.267851 9.4735865,13.258021 0 0 1 6.7670611,16.00983 9.4735865,13.258021 0 0 1 16.240647,2.75181 9.4735865,13.258021 0 0 1 25.714234,16.00983 Z m 2.427606,0 A 11.210869,14.809993 0 0 1 16.930971,30.819823 11.210869,14.809993 0 0 1 5.7201023,16.00983 11.210869,14.809993 0 0 1 16.930971,1.1998377 11.210869,14.809993 0 0 1 28.14184,16.00983 Z"
       style="color:#000000;clip-rule:nonzero;display:inline;overflow:visible;visibility:visible;opacity:1;isolation:auto;mix-blend-mode:normal;color-interpolation:sRGB;color-interpolation-filters:linearRGB;solid-color:#000000;solid-opacity:1;fill:#cacaca;fill-opacity:1;fill-rule:evenodd;stroke:none;stroke-width:1;stroke-linecap:round;stroke-linejoin:miter;stroke-miterlimit:4;stroke-dasharray:none;stroke-dashoffset:0;stroke-opacity:1;color-rendering:auto;image-rendering:auto;shape-rendering:auto;text-rendering:auto;enable-background:accumulate"
       id="path4269" />
    <ellipse
       ry="3.5550549"
       rx="2.3850598"
       cy="16.00983"
       cx="13.9192"
       id="path4136-4"
       style="color:#000000;clip-rule:nonzero;display:inline;overflow:visible;visibility:visible;opacity:1;isolation:auto;mix-blend-mode:normal;color-interpolation:sRGB;color-interpolation-filters:linearRGB;solid-color:#000000;solid-opacity:1;fill:#cdcdcd;fill-opacity:1;fill-rule:evenodd;stroke:none;stroke-width:1;stroke-linecap:round;stroke-linejoin:miter;stroke-miterlimit:4;stroke-dasharray:none;stroke-dashoffset:0;stroke-opacity:1;color-rendering:auto;image-rendering:auto;shape-rendering:auto;text-rendering:auto;enable-background:accumulate" />
  </g>
  <g
     id="g4342"
     transform="translate(66.125,-20)">
    <circle
       r="15.5"
       cy="36"
       cx="-50.125"
       id="path4367-4"
       style="color:#000000;clip-rule:nonzero;display:inline;overflow:visible;visibility:visible;opacity:1;isolation:auto;mix-blend-mode:normal;color-interpolation:sRGB;color-interpolation-filters:linearRGB;solid-color:#000000;solid-opacity:1;fill:#e7e7e7;fill-opacity:1;fill-rule:evenodd;stroke:#191919;stroke-width:1;stroke-linecap:round;stroke-linejoin:miter;stroke-miterlimit:4;stroke-dasharray:none;stroke-dashoffset:0;stroke-opacity:1;color-rendering:auto;image-rendering:auto;shape-rendering:auto;text-rendering:auto;enable-background:accumulate" />
    <path
       inkscape:connector-curvature="0"
       id="path4363-92"
       d="m -46.302732,24.00094 c -0.62502,0.01859 -1.30653,0.313412 -1.88525,1.001975 l -5.02588,4.99669 -2.41113,0 c -0.831004,0 -1.500004,0.669014 -1.500004,1.500032 l 0,9.000195 c 0,0.831018 0.669,1.500032 1.500004,1.500032 l 2.41113,0 5.02588,4.99669 c 1.54327,1.836168 3.81299,0.877531 3.81299,-0.678238 l 0,-20.637164 c 0,-0.972354 -0.88603,-1.711195 -1.92774,-1.680212 z"
       style="color:#000000;clip-rule:nonzero;display:inline;overflow:visible;visibility:visible;opacity:1;isolation:auto;mix-blend-mode:normal;color-interpolation:sRGB;color-interpolation-filters:linearRGB;solid-color:#000000;solid-opacity:1;fill:#747474;fill-opacity:1;fill-rule:evenodd;stroke:none;stroke-width:1;stroke-linecap:round;stroke-linejoin:miter;stroke-miterlimit:4;stroke-dasharray:none;stroke-dashoffset:0;stroke-opacity:1;color-rendering:auto;image-rendering:auto;shape-rendering:auto;text-rendering:auto;enable-background:accumulate" />
  </g>
  <g
     id="g4336"
     transform="translate(7.4246212,54.270445)">
    <path
       sodipodi:nodetypes="sccssssccsss"
       inkscape:connector-curvature="0"
       id="path4363"
       d="m 14.429681,0.00125275 c -0.83336,0.0247867 -1.742039,0.41788277 -2.513666,1.33596645 L 6,10.064007 l -3.9999954,0 C 0.8919997,10.064007 0,10.956024 0,12.064048 l 0,7.871602 c 0,1.108024 0.7212337,2.000043 2.0000046,2.000043 l 3.9999954,0 5.916015,8.726379 C 13.973708,33.110296 17,31.832113 17,29.757754 L 17,2.2415356 C 17,0.94506352 15.818627,-0.04005684 14.429681,0.00125275 Z"
       style="color:#000000;clip-rule:nonzero;display:inline;overflow:visible;visibility:visible;opacity:1;isolation:auto;mix-blend-mode:normal;color-interpolation:sRGB;color-interpolation-filters:linearRGB;solid-color:#000000;solid-opacity:1;fill:#bcbcbc;fill-opacity:1;fill-rule:evenodd;stroke:none;stroke-width:1;stroke-linecap:round;stroke-linejoin:miter;stroke-miterlimit:4;stroke-dasharray:none;stroke-dashoffset:0;stroke-opacity:1;color-rendering:auto;image-rendering:auto;shape-rendering:auto;text-rendering:auto;enable-background:accumulate" />
    <g
       transform="translate(0.75000049,-32.497107)"
       id="g4330">
      <path
         inkscape:connector-curvature="0"
         style="color:#000000;clip-rule:nonzero;display:inline;overflow:visible;visibility:visible;opacity:1;isolation:auto;mix-blend-mode:normal;color-interpolation:sRGB;color-interpolation-filters:linearRGB;solid-color:#000000;solid-opacity:1;fill:#303030;fill-opacity:1;fill-rule:evenodd;stroke:none;stroke-width:1;stroke-linecap:round;stroke-linejoin:miter;stroke-miterlimit:4;stroke-dasharray:none;stroke-dashoffset:0;stroke-opacity:1;color-rendering:auto;image-rendering:auto;shape-rendering:auto;text-rendering:auto;enable-background:accumulate"
         d="m 22.885877,53.457256 c -0.225509,-0.102094 -0.495003,-0.362337 -0.588623,-0.568416 -0.11076,-0.243808 -0.11375,-0.680744 -0.0063,-0.90738 0.04467,-0.09413 0.292516,-0.382316 0.550781,-0.640411 0.51028,-0.509948 0.737221,-0.819847 0.985761,-1.346109 0.259965,-0.550451 0.327078,-0.870101 0.322535,-1.53619 -0.0034,-0.506294 -0.02163,-0.640094 -0.133799,-0.984374 -0.237499,-0.729013 -0.494106,-1.127977 -1.175815,-1.828126 -0.263574,-0.270702 -0.513301,-0.559694 -0.55495,-0.642203 -0.044,-0.08718 -0.07572,-0.264947 -0.07572,-0.424391 0,-0.681928 0.572223,-1.199134 1.229117,-1.110941 0.277004,0.03719 0.765098,0.369614 1.232371,0.83933 0.778247,0.782315 1.268599,1.656516 1.552552,2.767894 0.160972,0.630041 0.204648,1.758965 0.09289,2.401104 -0.157395,0.904373 -0.522568,1.779381 -1.045997,2.50636 -0.311231,0.432261 -0.963328,1.076335 -1.349017,1.332418 -0.235034,0.156054 -0.311177,0.181368 -0.581042,0.193169 -0.193063,0.0085 -0.365145,-0.01113 -0.45483,-0.05174 z"
         id="path4328" />
      <path
         inkscape:connector-curvature="0"
         style="color:#000000;clip-rule:nonzero;display:inline;overflow:visible;visibility:visible;opacity:1;isolation:auto;mix-blend-mode:normal;color-interpolation:sRGB;color-interpolation-filters:linearRGB;solid-color:#000000;solid-opacity:1;fill:#303030;fill-opacity:1;fill-rule:evenodd;stroke:none;stroke-width:1;stroke-linecap:round;stroke-linejoin:miter;stroke-miterlimit:4;stroke-dasharray:none;stroke-dashoffset:0;stroke-opacity:1;color-rendering:auto;image-rendering:auto;shape-rendering:auto;text-rendering:auto;enable-background:accumulate"
         d="m 25.491082,57.571629 c -0.718996,-0.310949 -0.905938,-1.291431 -0.344136,-1.80494 0.07326,-0.06696 0.312497,-0.256091 0.531636,-0.420287 1.390626,-1.041951 2.497218,-2.643242 3.018195,-4.367466 0.278134,-0.920516 0.332662,-1.335382 0.331239,-2.520186 -0.0011,-0.962797 -0.01219,-1.105824 -0.126576,-1.641626 -0.464149,-2.174031 -1.622081,-3.989101 -3.373891,-5.28861 -0.487395,-0.361554 -0.614982,-0.522675 -0.697715,-0.881088 -0.147449,-0.638785 0.387329,-1.295818 1.054702,-1.295818 0.310709,0 0.564314,0.11453 1.036234,0.467972 2.00977,1.505203 3.448923,3.693343 4.054802,6.165065 0.226209,0.922836 0.295459,1.642879 0.269143,2.798493 -0.01886,0.828481 -0.0452,1.127341 -0.145537,1.651351 -0.437652,2.285744 -1.503415,4.265256 -3.151939,5.854304 -0.560462,0.540242 -1.269621,1.096555 -1.588969,1.246496 -0.273428,0.128383 -0.620709,0.142935 -0.867188,0.03633 z"
         id="path4326" />
    </g>
  </g>
</svg>
