<?xml version="1.0" encoding="UTF-8" standalone="no"?>
<!-- Created with Inkscape (http://www.inkscape.org/) -->

<svg
   xmlns:dc="http://purl.org/dc/elements/1.1/"
   xmlns:cc="http://creativecommons.org/ns#"
   xmlns:rdf="http://www.w3.org/1999/02/22-rdf-syntax-ns#"
   xmlns:svg="http://www.w3.org/2000/svg"
   xmlns="http://www.w3.org/2000/svg"
   xmlns:sodipodi="http://sodipodi.sourceforge.net/DTD/sodipodi-0.dtd"
   xmlns:inkscape="http://www.inkscape.org/namespaces/inkscape"
   width="22"
   height="22"
   viewBox="0 0 22 22"
   id="svg2"
   version="1.1"
   inkscape:version="0.91 r13725"
   sodipodi:docname="toolbar_shelf_groups_remove.svg">
  <defs
     id="defs4" />
  <sodipodi:namedview
     id="base"
     pagecolor="#ffffff"
     bordercolor="#666666"
     borderopacity="1.0"
     inkscape:pageopacity="0.0"
     inkscape:pageshadow="2"
     inkscape:zoom="16"
     inkscape:cx="4.0799663"
     inkscape:cy="14.039851"
     inkscape:document-units="px"
     inkscape:current-layer="layer1"
     showgrid="false"
     units="px"
     inkscape:window-width="1920"
     inkscape:window-height="1028"
     inkscape:window-x="-8"
     inkscape:window-y="-8"
     inkscape:window-maximized="1"
     inkscape:snap-center="true"
     inkscape:snap-intersection-paths="true"
     inkscape:object-nodes="true"
     inkscape:snap-bbox="true"
     inkscape:bbox-nodes="true"
     inkscape:snap-bbox-midpoints="true"
     inkscape:snap-bbox-edge-midpoints="true"
     inkscape:bbox-paths="true"
     inkscape:snap-page="true"
     inkscape:snap-object-midpoints="true"
     inkscape:snap-smooth-nodes="true"
     inkscape:object-paths="true"
     inkscape:snap-midpoints="true" />
  <metadata
     id="metadata7">
    <rdf:RDF>
      <cc:Work
         rdf:about="">
        <dc:format>image/svg+xml</dc:format>
        <dc:type
           rdf:resource="http://purl.org/dc/dcmitype/StillImage" />
        <dc:title></dc:title>
      </cc:Work>
    </rdf:RDF>
  </metadata>
  <g
     inkscape:label="Layer 1"
     inkscape:groupmode="layer"
     id="layer1"
     transform="translate(0,-1030.3622)">
    <path
       id="rect4142"
       style="color:#000000;clip-rule:nonzero;display:inline;overflow:visible;visibility:visible;opacity:1;isolation:auto;mix-blend-mode:normal;color-interpolation:sRGB;color-interpolation-filters:linearRGB;solid-color:#000000;solid-opacity:1;fill:#000000;fill-opacity:1;fill-rule:evenodd;stroke:none;stroke-width:1;stroke-linecap:round;stroke-linejoin:miter;stroke-miterlimit:4;stroke-dasharray:none;stroke-dashoffset:0;stroke-opacity:1;color-rendering:auto;image-rendering:auto;shape-rendering:auto;text-rendering:auto;enable-background:accumulate"
       d="m -13.625,1042.9515 1,0 0,5 -1,0 z m 0,8 1,0 0,4 -1,0 z m 10,-10 -12,0 0,16 12,0 0,-3 -1,0 0,1.9999 -6,0 0,-7 -4,0 0,-7 10,0 0,2.0001 1,0 z m -8,8.9999 0,6 -3,0 0,-6 z"
       inkscape:connector-curvature="0"
       sodipodi:nodetypes="ccccccccccccccccccccsccccccccc" />
    <path
       style="color:#000000;clip-rule:nonzero;display:inline;overflow:visible;visibility:visible;opacity:1;isolation:auto;mix-blend-mode:normal;color-interpolation:sRGB;color-interpolation-filters:linearRGB;solid-color:#000000;solid-opacity:1;fill:#000000;fill-opacity:1;fill-rule:evenodd;stroke:none;stroke-width:1;stroke-linecap:round;stroke-linejoin:miter;stroke-miterlimit:4;stroke-dasharray:none;stroke-dashoffset:0;stroke-opacity:1;color-rendering:auto;image-rendering:auto;shape-rendering:auto;text-rendering:auto;enable-background:accumulate"
       d="M 9,3 C 8.2655448,3 7.9107212,3.6429 8,4 L 8,5 6.1992188,5 C 6.1042467,5 6,5.1054187 6,5.1992188 L 6,6 5,6 5,7 17,7 17,6 16,6 16,5.1992188 C 16,5.1062187 15.89575,5 15.800781,5 L 14,5 14,4 C 14,3.666 13.679086,3 13,3 Z M 9.1992188,4 12.800781,4 C 13.005063,4 13,4.2605 13,4.5 L 13,5 9,5 9,4.5 C 9,4.2666 8.9617907,4 9.1992188,4 Z M 6,8 6,17.748047 C 5.9923757,18.441747 6.6418406,19 7.3066406,19 l 7.3867184,0 C 15.358158,19 16,18.441647 16,17.748047 L 16,8 Z m 1,2 2,0 0,7 -2,0 z m 3,0 2,0 0,7 -2,0 z m 3,0 2,0 0,7 -2,0 z"
       transform="translate(0,1030.3622)"
       id="rect4155"
       inkscape:connector-curvature="0"
       sodipodi:nodetypes="sccssccccccsscssssssccssccsssccccccccccccccccc" />
  </g>
</svg>
