<?xml version="1.0" encoding="UTF-8" standalone="no"?>
<!-- Created with Inkscape (http://www.inkscape.org/) -->

<svg
   xmlns:dc="http://purl.org/dc/elements/1.1/"
   xmlns:cc="http://creativecommons.org/ns#"
   xmlns:rdf="http://www.w3.org/1999/02/22-rdf-syntax-ns#"
   xmlns:svg="http://www.w3.org/2000/svg"
   xmlns="http://www.w3.org/2000/svg"
   xmlns:sodipodi="http://sodipodi.sourceforge.net/DTD/sodipodi-0.dtd"
   xmlns:inkscape="http://www.inkscape.org/namespaces/inkscape"
   width="100"
   height="20"
   id="svg2"
   version="1.1"
   inkscape:version="0.48.3.1 r9886"
   sodipodi:docname="New document 1">
  <defs
     id="defs4" />
  <sodipodi:namedview
     id="base"
     pagecolor="#ffffff"
     bordercolor="#666666"
     borderopacity="1.0"
     inkscape:pageopacity="0.0"
     inkscape:pageshadow="2"
     inkscape:zoom="7.9195959"
     inkscape:cx="63.81545"
     inkscape:cy="-9.1704728"
     inkscape:document-units="px"
     inkscape:current-layer="layer1"
     showgrid="false"
     inkscape:window-width="1920"
     inkscape:window-height="1028"
     inkscape:window-x="-8"
     inkscape:window-y="-8"
     inkscape:window-maximized="1" />
  <metadata
     id="metadata7">
    <rdf:RDF>
      <cc:Work
         rdf:about="">
        <dc:format>image/svg+xml</dc:format>
        <dc:type
           rdf:resource="http://purl.org/dc/dcmitype/StillImage" />
        <dc:title></dc:title>
      </cc:Work>
    </rdf:RDF>
  </metadata>
  <g
     inkscape:label="Layer 1"
     inkscape:groupmode="layer"
     id="layer1"
     transform="translate(0,-1032.3622)">
    <path
       style="color:#000000;fill:#3765b5;fill-opacity:1;fill-rule:evenodd;stroke:none;visibility:visible;display:inline;overflow:visible;enable-background:accumulate"
       d="m 0.75667769,1042.3145 0,-9.2176 4.70352281,0 c 2.7102908,0 4.9383345,0.057 5.2576195,0.1309 3.130969,0.7218 4.684581,3.7553 4.684581,9.1468 0,5.3531 -1.436499,8.1339 -4.63174,8.9662 -0.577575,0.1504 -1.658187,0.1883 -5.3685568,0.1883 l -4.64542651,0 0,-9.2176 z m 8.77570031,6.8065 c 0.2777919,-0.095 0.770113,-0.4357 1.094047,-0.7578 0.482529,-0.4797 0.647218,-0.7699 0.91126,-1.6057 0.808788,-2.5603 0.705947,-7.6419 -0.190205,-9.3985 -0.391772,-0.7679 -1.067168,-1.4294 -1.78459,-1.7478 -0.5834128,-0.2589 -0.9050489,-0.2996 -2.7137297,-0.3437 l -2.0518724,-0.05 0,7.0968 0,7.0967 2.1150069,-0.059 c 1.3022076,-0.036 2.3091082,-0.1251 2.6200832,-0.2311 l 0,0 z"
       id="path3781"
       inkscape:connector-curvature="0" />
    <path
       style="color:#000000;fill:#3765b5;fill-opacity:1;fill-rule:evenodd;stroke:none;visibility:visible;display:inline;overflow:visible;enable-background:accumulate"
       d="m 21.959697,1051.6446 c -2.74973,-0.2263 -4.435794,-1.6726 -4.988362,-4.2789 -0.225171,-1.0621 -0.223374,-3.4929 0.0034,-4.5627 0.59698,-2.8164 2.415885,-4.2837 5.56262,-4.4872 3.503168,-0.2265 5.693781,1.0638 6.466874,3.8093 0.09778,0.3472 0.209791,1.37 0.248915,2.2728 0.233576,5.3901 -2.068073,7.677 -7.293421,7.2467 z m 2.459232,-1.9899 c 0.912733,-0.5143 1.244792,-1.7531 1.239797,-4.6254 -0.0064,-3.6688 -0.548091,-4.8365 -2.302543,-4.9634 -1.344019,-0.097 -2.199752,0.3971 -2.587302,1.4946 -0.607013,1.7189 -0.51871,5.7452 0.154704,7.0538 0.193499,0.376 0.493955,0.7891 0.667679,0.9181 0.647489,0.4806 2.08174,0.5426 2.827665,0.1223 z"
       id="path3783"
       inkscape:connector-curvature="0" />
    <path
       style="color:#000000;fill:#3765b5;fill-opacity:1;fill-rule:evenodd;stroke:none;visibility:visible;display:inline;overflow:visible;enable-background:accumulate"
       d="m 30.682447,1044.9661 0,-6.5659 1.830901,0 1.830902,0 0,0.505 c 0,0.2778 0.03384,0.5051 0.07521,0.5051 0.04137,0 0.238042,-0.1159 0.437059,-0.2577 0.748889,-0.5332 1.744652,-0.7866 3.149535,-0.8015 1.607297,-0.017 2.454927,0.2311 3.144541,0.9208 0.918877,0.9188 0.896069,0.7453 0.896069,6.8182 l 0,5.442 -1.325825,0 -1.325825,0 0,-5.0448 c 0,-3.5871 -0.04275,-5.1386 -0.147951,-5.3695 -0.247471,-0.5432 -0.908475,-0.8564 -1.947905,-0.9231 -0.817132,-0.052 -1.009649,-0.02 -1.609607,0.2738 -0.423126,0.2071 -0.807293,0.515 -1.013383,0.8124 l -0.331917,0.479 0,4.8861 0,4.8861 -1.830902,0 -1.830901,0 0,-6.566 z"
       id="path3785"
       inkscape:connector-curvature="0" />
    <path
       style="color:#000000;fill:#3765b5;fill-opacity:1;fill-rule:evenodd;stroke:none;visibility:visible;display:inline;overflow:visible;enable-background:accumulate"
       d="m 47.16056,1051.5725 c -0.722764,-0.1 -1.737084,-0.4365 -2.203618,-0.731 -1.050525,-0.6632 -1.457987,-1.4997 -1.447195,-2.9712 0.0177,-2.4131 1.583306,-3.5934 5.355446,-4.0374 1.825169,-0.2148 2.779302,-0.7532 3.086164,-1.7414 0.197797,-0.6369 -0.432303,-1.6061 -1.255263,-1.9306 -0.549159,-0.2166 -2.393883,-0.1838 -3.343017,0.059 -0.906814,0.2324 -1.588462,0.5936 -2.400453,1.272 -0.297361,0.2484 -0.555854,0.4356 -0.57443,0.416 -0.05156,-0.055 0.402113,-2.0717 0.502454,-2.234 0.155962,-0.2524 1.32995,-0.7784 2.323587,-1.0412 0.721307,-0.1907 1.366869,-0.256 2.544841,-0.2572 2.397947,0 3.77013,0.3935 4.746327,1.3697 0.938642,0.9387 0.929901,0.8765 0.933008,6.6411 l 0.0028,5.1454 -1.830901,0 -1.830902,0 0,-0.6305 0,-0.6305 -0.576368,0.44 c -0.317003,0.2419 -0.871008,0.5211 -1.231123,0.6203 -0.71358,0.1966 -2.198977,0.3245 -2.80133,0.2411 l 0,0 z m 3.010444,-2.0637 c 0.517399,-0.1598 0.971761,-0.3999 1.212857,-0.641 l 0.38552,-0.3855 -0.0085,-1.8528 c -0.0067,-1.4613 -0.03838,-1.7907 -0.149769,-1.5592 -0.196563,0.4085 -0.92118,0.7462 -1.942453,0.9053 -2.30912,0.3596 -3.202533,0.9938 -3.202533,2.2735 0,0.7065 0.177235,0.9882 0.79937,1.2707 0.699481,0.3176 1.855953,0.3132 2.905554,-0.011 l 0,0 z"
       id="path3793"
       inkscape:connector-curvature="0" />
    <path
       style="color:#000000;fill:#3765b5;fill-opacity:1;fill-rule:evenodd;stroke:none;visibility:visible;display:inline;overflow:visible;enable-background:accumulate"
       d="m 62.881059,1051.5331 c -1.852562,-0.202 -2.861287,-0.7714 -3.472399,-1.9602 l -0.378807,-0.7369 -0.03894,-4.4603 -0.03894,-4.4603 -1.25532,0 -1.25532,0 0,-0.7576 0,-0.7576 1.26269,0 1.262691,0 0,-2.6517 0,-2.6516 1.830902,0 1.830901,0 0,2.6516 0,2.6517 1.262691,0 1.26269,0 0,0.7576 0,0.7576 -1.26269,0 -1.262691,0 2.02e-4,4.1984 c 1.77e-4,3.7476 0.0239,4.245 0.220971,4.6314 0.322497,0.6325 0.796023,0.9254 1.604498,0.9924 l 0.69971,0.058 0,0.8518 0,0.8517 -0.473509,0.078 c -0.524224,0.087 -0.619947,0.084 -1.799334,-0.044 z"
       id="path3795"
       inkscape:connector-curvature="0" />
    <path
       style="color:#000000;fill:#3765b5;fill-opacity:1;fill-rule:evenodd;stroke:none;visibility:visible;display:inline;overflow:visible;enable-background:accumulate"
       d="m 71.214818,1051.6451 c -2.877087,-0.2526 -4.537488,-1.4811 -5.128326,-3.7945 -0.31037,-1.2153 -0.315316,-3.9449 -0.0094,-5.1889 0.751825,-3.0572 3.05882,-4.6043 6.47433,-4.3417 3.476201,0.2672 5.006809,2.0204 5.03071,5.7623 l 0.0093,1.4521 -4.117765,0.033 -4.117765,0.033 0.117493,0.6464 c 0.171638,0.9444 0.711211,2.3802 1.077735,2.8679 0.454241,0.6045 1.177034,0.8956 2.231734,0.8989 1.279325,0 2.317633,-0.2134 3.302758,-0.6918 0.479527,-0.2328 0.890391,-0.4048 0.913032,-0.3822 0.02264,0.023 -0.01557,0.26 -0.0849,0.5274 -0.06934,0.2675 -0.187307,0.7218 -0.262154,1.0097 -0.113516,0.4367 -0.215289,0.5552 -0.61363,0.7146 -1.056999,0.4229 -3.043209,0.6096 -4.823123,0.4533 z m 4.04061,-8.2806 c 0,-0.9022 -0.355033,-1.9869 -0.833131,-2.5455 -0.521677,-0.6094 -1.252976,-0.9159 -2.196423,-0.9204 -1.720585,-0.01 -2.578174,0.9972 -2.841389,3.3313 l -0.08188,0.7261 2.976409,0 2.976409,0 0,-0.5915 z"
       id="path3797"
       inkscape:connector-curvature="0" />
  </g>
</svg>
