<?xml version="1.0" encoding="UTF-8" standalone="no"?>
<!-- Created with Inkscape (http://www.inkscape.org/) -->

<svg
   xmlns:dc="http://purl.org/dc/elements/1.1/"
   xmlns:cc="http://creativecommons.org/ns#"
   xmlns:rdf="http://www.w3.org/1999/02/22-rdf-syntax-ns#"
   xmlns:svg="http://www.w3.org/2000/svg"
   xmlns="http://www.w3.org/2000/svg"
   xmlns:sodipodi="http://sodipodi.sourceforge.net/DTD/sodipodi-0.dtd"
   xmlns:inkscape="http://www.inkscape.org/namespaces/inkscape"
   id="svg2985"
   version="1.1"
   inkscape:version="0.91 r13725"
   width="32"
   height="32"
   sodipodi:docname="options_color_brush.svg">
  <metadata
     id="metadata2991">
    <rdf:RDF>
      <cc:Work
         rdf:about="">
        <dc:format>image/svg+xml</dc:format>
        <dc:type
           rdf:resource="http://purl.org/dc/dcmitype/StillImage" />
        <dc:title />
      </cc:Work>
    </rdf:RDF>
  </metadata>
  <defs
     id="defs2989" />
  <sodipodi:namedview
     pagecolor="#ffffff"
     bordercolor="#666666"
     borderopacity="1"
     objecttolerance="10"
     gridtolerance="10"
     guidetolerance="10"
     inkscape:pageopacity="0"
     inkscape:pageshadow="2"
     inkscape:window-width="1920"
     inkscape:window-height="1028"
     id="namedview2987"
     showgrid="false"
     inkscape:zoom="7.9999996"
     inkscape:cx="16.681392"
     inkscape:cy="21.611806"
     inkscape:window-x="-8"
     inkscape:window-y="-8"
     inkscape:window-maximized="1"
     inkscape:current-layer="svg2985"
     inkscape:snap-smooth-nodes="true"
     inkscape:object-nodes="true"
     inkscape:snap-intersection-paths="true"
     inkscape:object-paths="true" />
  <path
     style="fill:#f1f1f1;fill-opacity:1;stroke:#878787;stroke-width:1px;stroke-linecap:butt;stroke-linejoin:miter;stroke-opacity:1"
     d="m 31.028589,15.999999 c 0,8.280961 -6.728528,14.994006 -15.028591,14.994006 -8.3000599,0 -15.02858523,-6.713045 -15.02858523,-14.994006 0,-8.2809587 6.72852533,-14.9940026 15.02858523,-14.9940026 8.300063,0 15.028591,6.7130439 15.028591,14.9940026 z"
     id="path3769"
     inkscape:connector-curvature="0" />
  <path
     id="path3816"
     style="fill:#000000;fill-opacity:1;stroke:none"
     d="m 50.460618,23.956724 -0.275992,-0.06491 -0.130311,0.801078 0.06444,0.01035 -0.378882,2.329239 0.169125,0.02722 c -0.250807,1.984008 -0.778809,3.755101 -1.29822,5.777604 l 6.25142,0.66919 c 0.16504,-1.884524 0.324516,-3.773576 0.658396,-5.543491 l 0.141264,0.02274 0.378885,-2.329237 0.04621,0.0074 0.130311,-0.80108 -0.285537,-0.04596 0.04441,-0.256247 c -0.819474,-0.264092 -2.36304,-1.67656 -1.726868,-3.858177 0.938293,-3.217685 1.918705,-4.175788 0.995162,-6.637404 -0.07634,-0.203524 -0.32066,-0.624366 -0.32066,-0.624366 0,0 -0.338635,0.339264 -0.480223,0.507308 -1.749955,2.076862 -1.056559,3.281947 -1.18588,6.620479 -0.08792,2.269865 -1.896367,3.117022 -2.757749,3.110557 l -0.03573,0.282481 m -0.162279,3.16145 -0.193333,1.759289 0.37017,-1.730825 0.351876,0.05664 -0.17284,1.43898 0.305642,-1.417607 0.604291,0.09727 -0.134363,1.412482 0.300414,-1.385754 0.371749,0.05984 -0.299319,2.59382 0.564966,-2.551058 0.318677,0.0513 -0.252321,2.263588 0.511283,-2.221902 0.803584,0.129345 -0.206405,1.603426 0.345892,-1.580975 0.524563,0.08443 -0.180234,1.568799 0.346236,-1.542078 0.310401,0.04997 -0.213604,1.669144 0.303244,-1.654716 0.240558,0.03873 c -0.242734,1.708292 -0.449568,3.322152 -0.571306,4.724494 -0.0486,0.03859 -0.148363,0.177681 -0.483092,0.153522 -0.208431,-0.01504 -0.260963,-0.34785 -0.545031,-0.410494 -0.396137,-0.08736 -0.256994,0.341639 -0.796263,0.362963 -0.415696,0.01644 -0.218414,-1.022571 -0.842956,-1.033293 -0.234291,-0.0041 -0.63581,1.212816 -1.604899,0.648907 0,0 -0.49223,-0.290631 -0.878859,-0.343696 -0.229483,-0.03151 -0.427773,0.200781 -0.427773,0.200781 0.429195,-1.695148 0.792619,-3.120182 1.095055,-5.116885 z m 4.395145,-12.215801 c 0.216535,0.03486 0.363517,0.238501 0.328314,0.454889 -0.03519,0.216385 -0.23924,0.36353 -0.455775,0.328674 -0.216532,-0.03486 -0.363517,-0.238498 -0.328314,-0.454887 0.03519,-0.216384 0.239243,-0.363532 0.455777,-0.328676 z m -4.275341,9.935035 c 0.0029,1.33e-4 0.0056,9.07e-4 0.0085,0.0013 l 5.256515,0.846104 c 0.04614,0.0074 0.07744,0.05014 0.06992,0.09624 l -0.0042,0.02603 c -0.0074,0.04612 -0.05081,0.07734 -0.09697,0.06992 L 50.39897,25.035698 c -0.04614,-0.0074 -0.07734,-0.05065 -0.06984,-0.09677 l 0.0042,-0.02603 c 0.0071,-0.04325 0.04559,-0.07328 0.08837,-0.07076 z m -0.227975,1.401489 c 0.0029,1.34e-4 0.0056,9.06e-4 0.0085,0.0013 l 5.256516,0.846105 c 0.04614,0.0074 0.07743,0.05012 0.06992,0.09624 l -0.0042,0.02603 c -0.0074,0.04612 -0.05081,0.07734 -0.09697,0.06992 L 50.17099,26.437162 c -0.04614,-0.0074 -0.07734,-0.05065 -0.06984,-0.09677 l 0.0042,-0.02602 c 0.0071,-0.04324 0.04559,-0.07327 0.08837,-0.07076 z"
     inkscape:connector-curvature="0"
     sodipodi:nodetypes="cccccccccccccccsscssccccccccccccccccccccccccccccsssscscccsssssccccccccccccccccccccc" />
  <g
     id="g4179"
     transform="matrix(0.05277585,0,0,0.05277585,50.483248,15.769436)">
    <path
       sodipodi:nodetypes="zscsz"
       inkscape:connector-curvature="0"
       id="path4147"
       d="m -133.87711,-165.57548 c 33.14071,0.0848 35.757496,-28.02679 35.761965,-35.77311 0.01935,-33.53721 -12.720695,-54.60527 -31.069155,-82.40822 -21.55328,28.76981 -38.18929,49.40878 -37.41295,82.24703 0.25784,10.9063 -0.42057,35.84949 32.72014,35.9343 z"
       style="color:#000000;clip-rule:nonzero;display:inline;overflow:visible;visibility:visible;opacity:1;isolation:auto;mix-blend-mode:normal;color-interpolation:sRGB;color-interpolation-filters:linearRGB;solid-color:#000000;solid-opacity:1;fill:#000000;fill-opacity:1;fill-rule:evenodd;stroke:none;stroke-width:1;stroke-linecap:round;stroke-linejoin:miter;stroke-miterlimit:4;stroke-dasharray:none;stroke-dashoffset:0;stroke-opacity:1;color-rendering:auto;image-rendering:auto;shape-rendering:auto;text-rendering:auto;enable-background:accumulate" />
    <path
       sodipodi:nodetypes="cccsccccscsssscsssccccccccscsccscccscscc"
       inkscape:connector-curvature="0"
       d="m 42.311543,-424.34378 c 0.395256,16.05384 -0.179359,23.84563 -0.315374,38.99758 -9.227737,2.835 -16.236478,11.44279 -16.246169,21.0962 1e-6,12.15026 9.849736,22 22,22 12.150264,0 21.999999,-9.84974 22,-22 -0.0091,-8.45538 -4.678031,-16.8935 -11.743892,-20.72581 -0.12695,-15.3088 0.117587,-33.06731 0.128658,-37.50271 0,-28.19048 -0.152005,-38.37493 -0.152005,-38.37493 -4e-6,-14.4494 11.71355,-26.16296 26.162953,-26.16296 14.449404,0 26.162956,11.71356 26.162956,26.16296 0,0 -0.1739,10.92312 -0.1739,36.58978 0,21.45 -0.11531,39 -0.25586,39 -0.14056,0 -7.67525,-7.425 -16.744144,-16.5 -9.06889,-9.075 -16.603591,-16.5 -16.744141,-16.5 -0.14056,0 -0.544922,29.80273 -0.544922,29.80273 5.227234,6.16967 8.404297,14.19411 8.404297,22.96094 0,19.60611 -15.893891,35.5 -35.5,35.5 -19.606109,0 -35.5,-15.89389 -35.5,-35.5 0,-9.83458 3.998917,-18.73508 10.546875,-25.14453 0.05437,-30.34254 0.337891,-79.61914 0.337891,-79.61914 l -3.5,0 c -2.487534,-0.0238 -3.152623,-0.051 -4.25,1 -0.795275,0.79544 -141.249996,141.13867 -141.249996,141.13867 0,0 -2.02635,2.22772 -2.69064,4.81714 -0.0683,1.12441 0.22949,2.19601 1.37228,3.28246 0.71484,0.65702 1.11446,0.94051 2.07617,1.28517 1.60157,0.39811 2.49142,0.47656 5.99219,0.47656 l 5.75195,0 81.498046,81.5 c 44.82374,44.825 71.798368,71.46792 82.138672,81.5 2.922015,2.23088 4.210727,5.23365 9.611328,1.91603 27.952617,-24.66132 118.209144,-112.74909 137.582144,-133.39686 1.9946,-2.12585 2.81144,-4.64843 0.74599,-7.26915 -12.13848,-15.14925 -26.84725,-28.51344 -38.07813,-39.75 l -35,-34.9961 0,-48.25195 c 0,-31.8351 -0.26975,-43.84175 -0.26975,-43.84175 0,-23.04094 -18.67837,-41.71931 -41.719306,-41.71931 -23.040938,0 -41.719307,18.67837 -41.719303,41.71931 -0.04887,6.73426 -0.114868,7.99358 -0.114868,36.50967 z"
       style="color:#000000;clip-rule:nonzero;display:inline;overflow:visible;visibility:visible;opacity:1;isolation:auto;mix-blend-mode:normal;color-interpolation:sRGB;color-interpolation-filters:linearRGB;solid-color:#000000;solid-opacity:1;fill:#000000;fill-opacity:1;fill-rule:evenodd;stroke:none;stroke-width:1;stroke-linecap:round;stroke-linejoin:miter;stroke-miterlimit:4;stroke-dasharray:none;stroke-dashoffset:0;stroke-opacity:1;color-rendering:auto;image-rendering:auto;shape-rendering:auto;text-rendering:auto;enable-background:accumulate"
       id="path4159-3" />
  </g>
  <path
     id="path4197-5"
     style="fill:#000000;fill-opacity:1;fill-rule:evenodd;stroke:none;stroke-width:1px;stroke-linecap:butt;stroke-linejoin:miter;stroke-opacity:1"
     d="m 66.128757,14.083505 c -1.110351,-0.34118 -2.132767,-2.180989 -2.132767,-2.180989 0.464734,2.303894 1.872288,4.482611 3.029712,4.588023 0.349706,0.03185 0.959375,-0.117447 0.843616,-0.814325 -0.149995,-0.902958 -0.889679,-1.331256 -1.740558,-1.592705 z m 1.617893,3.102223 c 0.78487,1.039021 1.388967,2.022461 1.388967,2.022461 0.488002,-0.03859 0.994725,-0.450809 1.299086,-1.049476 0,0 -0.990227,-0.899815 -1.83846,-1.720645 -0.546715,0.0044 -0.788568,0.254985 -0.849595,0.747658 z m 1.657165,2.393269 c 0.827538,-0.268243 1.009774,-0.607946 1.32834,-1.110409 3.033381,3.223567 6.92555,8.851969 6.92555,8.851969 0.448443,0.571665 -0.140715,1.034699 -0.622861,0.50656 -2.646698,-2.805235 -4.51679,-4.661703 -7.631029,-8.24812 z"
     inkscape:connector-curvature="0"
     sodipodi:nodetypes="scssscsscccccccc" />
  <path
     id="path4197-0"
     style="fill:#000000;fill-opacity:1;fill-rule:evenodd;stroke:none;stroke-width:1px;stroke-linecap:butt;stroke-linejoin:miter;stroke-opacity:1"
     d="M 8.0605278,11.213017 C 7.1675997,9.5557656 4.2447692,9.6420156 4.2447692,9.6420156 7.5940478,8.0518824 11.130292,8.3073782 11.716536,10.299325 c 0.177125,0.601852 0.203926,1.867548 -0.799718,2.393621 -1.3004195,0.681636 -2.1720325,-0.209951 -2.8562928,-1.479931 z m 3.0127672,2.778058 c 1.163474,1.321379 2.020707,2.655019 2.020707,2.655019 0.865952,-0.3581 1.842619,-1.371179 2.502353,-2.584624 0,0 -1.553475,-0.958811 -2.873771,-1.866358 -0.962051,0.334232 -1.439422,0.910557 -1.649289,1.795963 z m 2.414991,3.13371 c 1.510687,-0.956694 1.9018,-1.650937 2.566467,-2.707103 4.661517,3.742096 9.183616,9.76871 9.183616,9.76871 0.669338,0.717097 -0.462833,1.867001 -1.200488,1.245046 C 20.525934,22.84522 18.216406,21.4438 13.488286,17.124785 Z"
     inkscape:connector-curvature="0" />
</svg>
