<?xml version="1.0" encoding="UTF-8" standalone="no"?>
<!-- Created with Inkscape (http://www.inkscape.org/) -->

<svg
   xmlns:dc="http://purl.org/dc/elements/1.1/"
   xmlns:cc="http://creativecommons.org/ns#"
   xmlns:rdf="http://www.w3.org/1999/02/22-rdf-syntax-ns#"
   xmlns:svg="http://www.w3.org/2000/svg"
   xmlns="http://www.w3.org/2000/svg"
   xmlns:sodipodi="http://sodipodi.sourceforge.net/DTD/sodipodi-0.dtd"
   xmlns:inkscape="http://www.inkscape.org/namespaces/inkscape"
   id="svg2985"
   version="1.1"
   inkscape:version="0.91 r13725"
   width="32"
   height="32"
   sodipodi:docname="options_font_color.svg">
  <metadata
     id="metadata2991">
    <rdf:RDF>
      <cc:Work
         rdf:about="">
        <dc:format>image/svg+xml</dc:format>
        <dc:type
           rdf:resource="http://purl.org/dc/dcmitype/StillImage" />
        <dc:title></dc:title>
      </cc:Work>
    </rdf:RDF>
  </metadata>
  <defs
     id="defs2989" />
  <sodipodi:namedview
     pagecolor="#ffffff"
     bordercolor="#666666"
     borderopacity="1"
     objecttolerance="10"
     gridtolerance="10"
     guidetolerance="10"
     inkscape:pageopacity="0"
     inkscape:pageshadow="2"
     inkscape:window-width="1920"
     inkscape:window-height="1028"
     id="namedview2987"
     showgrid="false"
     inkscape:zoom="7.9999996"
     inkscape:cx="10.675742"
     inkscape:cy="13.646339"
     inkscape:window-x="-8"
     inkscape:window-y="-8"
     inkscape:window-maximized="1"
     inkscape:current-layer="svg2985" />
  <path
     style="fill:#f1f1f1;fill-opacity:1;stroke:#878787;stroke-width:1px;stroke-linecap:butt;stroke-linejoin:miter;stroke-opacity:1"
     d="m 31.028589,15.999999 c 0,8.280961 -6.728528,14.994006 -15.028591,14.994006 -8.3000599,0 -15.02858523,-6.713045 -15.02858523,-14.994006 0,-8.2809587 6.72852533,-14.9940026 15.02858523,-14.9940026 8.300063,0 15.028591,6.7130439 15.028591,14.9940026 z"
     id="path3769"
     inkscape:connector-curvature="0" />
  <path
     style="color:#000000;clip-rule:nonzero;display:inline;overflow:visible;visibility:visible;opacity:1;isolation:auto;mix-blend-mode:normal;color-interpolation:sRGB;color-interpolation-filters:linearRGB;solid-color:#000000;solid-opacity:1;fill:#000000;fill-opacity:1;fill-rule:evenodd;stroke:none;stroke-width:1;stroke-linecap:round;stroke-linejoin:miter;stroke-miterlimit:4;stroke-dasharray:none;stroke-dashoffset:0;stroke-opacity:1;color-rendering:auto;image-rendering:auto;shape-rendering:auto;text-rendering:auto;enable-background:accumulate"
     d="m 14.968307,24.013197 c -2.93254,-0.530179 -4.905026,-2.51396 -5.5724821,-5.604391 -0.259553,-1.201771 -0.257864,-3.492024 0.0035,-4.703331 0.6443311,-2.986558 2.6765071,-5.0698533 5.5483471,-5.6879143 1.067828,-0.229812 2.857234,-0.207671 3.933281,0.04867 0.899344,0.214244 1.981222,0.587201 2.560245,0.882597 l 0.356571,0.181909 0,1.4124173 c 0,0.77683 -0.0195,1.412418 -0.04333,1.412418 -0.02384,0 -0.312202,-0.18525 -0.640816,-0.411666 -2.258243,-1.5559343 -4.851183,-1.9146873 -6.78089,-0.938185 -0.618898,0.313186 -1.446436,1.184425 -1.786586,1.880934 -0.949781,1.944824 -0.949813,5.101848 -7.3e-5,7.062591 1.39764,2.885435 5.400527,3.220043 8.831855,0.73827 l 0.419845,-0.30366 0,1.45368 0,1.453682 -0.68501,0.288906 c -1.033684,0.435963 -1.826974,0.691337 -2.607488,0.839398 -0.870381,0.165108 -2.605865,0.162005 -3.536932,-0.0063 l 0,-3e-6 z"
     id="path4138"
     inkscape:connector-curvature="0" />
</svg>
